# xmcd
#
# Track frame offsets:
#	150
#	20692
#	36077
#	55742
#	72005
#	93150
#	109825
#	127162
#	142702
#	163240
#	178597
#	198165
#	214415
#	235557
#	252259
#	269562
#	296467
#
# Disc length: 3965 seconds
#
# Revision: 1
# Processed by: cddbd v1.5.1PL2 Copyright (c) Steve Scherf et al.
# Submitted via: audiograbber 1.83.01
#
DISCID=f50f7b11
DTITLE=Sound Choice - SC3257
DYEAR=1900
DGENRE=Karaoke Country
TTITLE0=Shedaisy - Still Holding Out For You
TTITLE1=Keith Urban - Where The Blacktop Ends
TTITLE2=Lonestar - I'M Already There
TTITLE3=Billy Gilman - There'S A Hero
TTITLE4=Pat Green and Cory Morrow - Texas On My Mind
TTITLE5=Lee Ann Womack - Why They Call It Falling
TTITLE6=K.T. Oslin - Live Close By, Visit Often
TTITLE7=Alabama - Will You Marry Me (Radio Version)
TTITLE8=Shedaisy - Still Holding Out For You
TTITLE9=Keith Urban - Where The Blacktop Ends
TTITLE10=Lonestar - I'M Already There
TTITLE11=Billy Gilman - There'S A Hero
TTITLE12=Pat Green and Cory Morrow - Texas On My Mind
TTITLE13=Lee Ann Womack - Why They Call It Falling
TTITLE14=K.T. Oslin - Live Close By, Visit Often
TTITLE15=Alabama - Will You Marry Me (Radio Version)
TTITLE16=Must Supply Artist - Data Track
EXTD=
EXTT0=Tracks 9-16 Demos
EXTT1=
EXTT2=
EXTT3=
EXTT4=
EXTT5=
EXTT6=
EXTT7=
EXTT8=
EXTT9=
EXTT10=
EXTT11=
EXTT12=
EXTT13=
EXTT14=
EXTT15=
EXTT16=
PLAYORDER=
